<svg width="26" height="24" viewBox="0 0 26 24" fill="none" xmlns="http://www.w3.org/2000/svg">
<path d="M21.3064 6.423C21.4477 6.29433 21.5603 6.14039 21.6379 5.97017C21.7154 5.79995 21.7563 5.61684 21.7581 5.43155C21.7599 5.24625 21.7226 5.06248 21.6484 4.89094C21.5741 4.7194 21.4645 4.56354 21.3257 4.43245C21.187 4.30136 21.022 4.19766 20.8404 4.12742C20.6588 4.05717 20.4642 4.02177 20.2679 4.02329C20.0717 4.02482 19.8777 4.06322 19.6973 4.13628C19.517 4.20934 19.3538 4.31558 19.2174 4.4488L13.2932 10.0402L7.37098 4.4488C7.23566 4.31169 7.07248 4.20172 6.89117 4.12545C6.70985 4.04918 6.51413 4.00816 6.31566 4.00486C6.1172 4.00155 5.92006 4.03602 5.73602 4.10621C5.55197 4.17639 5.38478 4.28086 5.24442 4.41338C5.10406 4.5459 4.99341 4.70374 4.91907 4.87751C4.84473 5.05128 4.80823 5.2374 4.81173 5.42478C4.81523 5.61216 4.85867 5.79695 4.93946 5.96813C5.02024 6.13932 5.13672 6.29338 5.28194 6.42114L11.2002 12.0144L5.278 17.6058C5.01691 17.8703 4.87477 18.2202 4.88153 18.5818C4.88828 18.9433 5.04341 19.2883 5.31422 19.5439C5.58503 19.7996 5.95039 19.9461 6.33331 19.9525C6.71624 19.9588 7.08684 19.8246 7.36704 19.5781L13.2932 13.9867L19.2154 19.58C19.4956 19.8265 19.8662 19.9607 20.2491 19.9543C20.6321 19.9479 20.9974 19.8015 21.2682 19.5458C21.539 19.2901 21.6942 18.9452 21.7009 18.5836C21.7077 18.2221 21.5655 17.8722 21.3045 17.6077L15.3862 12.0144L21.3064 6.423Z" fill="black"/>
</svg>
