<svg width="44" height="24" viewBox="0 0 44 24" fill="none" xmlns="http://www.w3.org/2000/svg">
<path d="M25.8879 6.07129H22.1528C20.9575 6.07129 19.9796 6.95414 19.9796 8.05431V14.438C19.9796 15.4159 20.7538 16.2173 21.7725 16.3803V13.9762C21.7725 12.8896 22.6282 11.9932 23.674 11.9932H24.3667C25.4261 11.9932 26.2682 12.876 26.2682 13.9762V16.3803C27.2869 16.2173 28.0475 15.4024 28.0475 14.438V8.05431C28.0611 6.95414 27.0832 6.07129 25.8879 6.07129Z" fill="#FFCA20"/>
<path d="M23.8913 5.43292C24.8693 5.43292 25.6435 4.71305 25.6435 3.81662C25.6435 2.92018 24.8557 2.20032 23.8913 2.20032C22.9134 2.20032 22.1392 2.92018 22.1392 3.81662C22.1256 4.71305 22.9134 5.43292 23.8913 5.43292Z" fill="#FFCA20"/>
<path d="M29.7996 2.41766C30.5195 2.41766 31.1035 1.87436 31.1035 1.20883C31.1035 0.543294 30.5195 0 29.7996 0C29.0797 0 28.4957 0.543294 28.4957 1.20883C28.4957 1.45331 28.5772 1.68421 28.713 1.87436L26.6485 3.96604C26.3497 4.02037 26.1188 4.27844 26.1188 4.60441C26.1188 4.95756 26.404 5.25637 26.7707 5.25637H29.7453C30.0984 5.25637 30.3972 4.97114 30.3972 4.60441C30.3972 4.25127 30.112 3.95246 29.7453 3.95246H27.2869L29.039 2.17318C29.2427 2.32258 29.5008 2.41766 29.7996 2.41766Z" fill="#FFCA20"/>
<path d="M21.7997 4.60441C21.7997 4.26486 21.5416 3.99321 21.2156 3.96604L19.0425 2.01019C19.2462 1.79287 19.3684 1.52122 19.3684 1.20883C19.3684 0.543294 18.7844 0 18.0645 0C17.3447 0 16.7606 0.543294 16.7606 1.20883C16.7606 1.87436 17.3447 2.41766 18.0645 2.41766C18.2818 2.41766 18.4992 2.36333 18.6757 2.28183L20.5501 3.96604H18.1868C17.8336 3.96604 17.5348 4.25127 17.5348 4.618C17.5348 4.97114 17.82 5.26995 18.1868 5.26995H21.1613C21.5144 5.24278 21.7997 4.95756 21.7997 4.60441Z" fill="#FFCA20"/>
<path d="M0 20.7946V16.5569C0 15.7012 0.122241 14.9814 0.380306 14.4109C0.63837 13.8269 0.977929 13.3651 1.41256 13.0119C1.83362 12.6859 2.32258 12.4415 2.87946 12.2921C3.43633 12.1427 4.00679 12.0612 4.60441 12.0612C4.64516 12.0612 4.69949 12.0612 4.7674 12.0612C4.83531 12.0612 4.88964 12.0612 4.93039 12.0612V14.3973H4.16978C3.53141 14.3973 3.06961 14.5467 2.75722 14.8591C2.44482 15.1715 2.29542 15.6469 2.29542 16.2988V20.7946H0Z" fill="black"/>
<path fill-rule="evenodd" clip-rule="evenodd" d="M9.69782 20.8761C10.2139 20.8218 10.7029 20.6724 11.1647 20.4279C11.5993 20.2106 11.9796 19.8574 12.3056 19.3549C12.618 18.8659 12.781 18.1868 12.781 17.3039V14.3158C12.781 13.5281 12.4686 12.9168 11.8302 12.4822C11.219 12.0612 10.2954 11.8574 9.07303 11.8574C7.98644 11.8574 7.14433 12.1155 6.54671 12.618C6.017 13.0527 5.70461 13.6095 5.62311 14.2887H7.82345C7.93211 14.0578 8.10868 13.8812 8.35316 13.7997C8.58406 13.7046 8.85571 13.6639 9.1681 13.6639C9.45333 13.6639 9.76573 13.7182 10.1053 13.8133C10.4313 13.9084 10.6078 14.1257 10.6078 14.4516C10.6078 14.8863 10.1325 15.1715 9.1681 15.3073C8.96437 15.3345 8.7878 15.3617 8.63839 15.3888C8.48899 15.4296 8.35316 15.4432 8.2445 15.4432C7.41598 15.579 6.72328 15.837 6.19357 16.2309C5.66386 16.6248 5.39221 17.2768 5.39221 18.2004C5.39221 19.1919 5.67744 19.8982 6.27506 20.3192C6.85911 20.7403 7.5518 20.9576 8.33958 20.9576C8.73347 20.9576 9.18169 20.9304 9.69782 20.8761ZM9.35823 16.8014C9.90152 16.6791 10.3226 16.5297 10.635 16.3803V17.1817C10.635 17.7929 10.4584 18.2683 10.1053 18.6214C9.7657 18.9746 9.27674 19.1511 8.66553 19.1511C8.28523 19.1511 8.01358 19.0696 7.80984 18.8931C7.60611 18.7029 7.51103 18.4313 7.51103 18.1053C7.51103 17.8744 7.59253 17.6299 7.74193 17.3854C7.9185 17.2224 8.20373 17.073 8.59762 16.9644L9.35823 16.8014Z" fill="black"/>
<path fill-rule="evenodd" clip-rule="evenodd" d="M15.4295 23.674C15.6469 23.4567 15.7555 23.1986 15.7555 22.8862H15.7691V19.64C16.0272 20.1018 16.3803 20.4414 16.8149 20.6587C17.2224 20.8624 17.7114 20.9575 18.2547 20.9575C19.2733 20.9575 20.129 20.5365 20.781 19.7079C21.4465 18.8522 21.7725 17.7385 21.7725 16.3531C21.7725 15.022 21.4329 13.9218 20.781 13.0662C20.455 12.6587 20.0068 12.3599 19.4499 12.1561C18.893 11.9524 18.3362 11.8438 17.7929 11.8438C16.747 11.8438 15.7691 12.129 14.8727 12.6859C13.9762 13.2427 13.528 14.2886 13.528 15.8234V23.9999H14.6418C14.9542 23.9999 15.2122 23.8913 15.4295 23.674ZM19.0152 14.4787C19.3411 14.9405 19.5041 15.5925 19.5041 16.4482C19.5041 17.2359 19.3411 17.8607 19.0016 18.3225C18.6756 18.7843 18.2274 19.0152 17.6569 19.0152C17.0457 19.0152 16.5703 18.7843 16.2444 18.3225C15.9184 17.9015 15.7554 17.2767 15.7554 16.4482C15.7554 15.5517 15.9048 14.8998 16.2172 14.4787C16.5568 14.0169 17.005 13.786 17.6026 13.786C18.2138 13.786 18.6892 14.0169 19.0152 14.4787Z" fill="black"/>
<path fill-rule="evenodd" clip-rule="evenodd" d="M33.3718 9.45337H32.2581H32.2445V13.1885C31.9864 12.7675 31.6333 12.4279 31.1987 12.1698C30.7912 11.9525 30.3022 11.8439 29.7589 11.8439C28.7267 11.8439 27.8846 12.2649 27.2326 13.1206C26.5943 13.9491 26.2819 15.0493 26.2819 16.4347C26.2819 17.8337 26.5943 18.9338 27.2326 19.7488C27.5586 20.1698 28.0068 20.4686 28.5501 20.6588C29.0934 20.849 29.6503 20.944 30.2207 20.944C31.2666 20.944 32.2445 20.6724 33.1409 20.1291C34.0374 19.5858 34.4856 18.54 34.4856 16.978V10.5671C34.4856 10.2819 34.3769 10.0238 34.1596 9.79293C33.9423 9.56203 33.6842 9.45337 33.3718 9.45337ZM28.9982 18.3634C28.6722 17.9016 28.5092 17.2361 28.5092 16.3532C28.5092 15.5654 28.6722 14.9542 29.0118 14.5196C29.3378 14.0578 29.786 13.8269 30.3564 13.8269C30.9541 13.8269 31.4159 14.0442 31.769 14.4788C32.095 14.9406 32.258 15.5654 32.258 16.3532C32.258 17.2361 32.1086 17.9016 31.7962 18.3634C31.4566 18.8252 31.0084 19.0561 30.4108 19.0561C29.7996 19.0561 29.3242 18.8252 28.9982 18.3634Z" fill="black"/>
<path fill-rule="evenodd" clip-rule="evenodd" d="M35.3956 18.4176C35.5993 19.0832 35.9253 19.6129 36.3871 20.0068C36.8218 20.4006 37.4194 20.6723 38.1121 20.8353C38.8455 20.9983 39.579 20.9847 40.2988 20.7809C41.1138 20.6044 41.7793 20.1562 42.309 19.4363C42.5535 19.0967 42.7572 18.6621 42.9066 18.1596C43.0561 17.657 43.1375 17.0594 43.1375 16.3531C43.1375 15.3888 42.9474 14.5467 42.5807 13.8268C42.1868 13.0118 41.5756 12.4414 40.7471 12.1154C40.0272 11.8438 39.2123 11.7759 38.3158 11.8981C37.4194 12.0203 36.6859 12.4142 36.1155 13.0662C35.7623 13.4601 35.5043 13.949 35.3413 14.5467C35.1783 15.1443 35.0968 15.7283 35.0968 16.3259C35.0968 17.0594 35.1919 17.7521 35.3956 18.4176ZM37.3378 16.4754C37.2971 15.4703 37.5008 14.7232 37.9626 14.2207C38.1256 14.0713 38.3565 13.9355 38.6825 13.854C39.022 13.7589 39.348 13.7589 39.674 13.8676C40 13.9762 40.2852 14.2343 40.5433 14.6282C40.8013 15.0221 40.9236 15.6197 40.9236 16.4075C40.91 17.2767 40.7606 17.9151 40.5025 18.309C40.2309 18.7029 39.932 18.9473 39.5925 19.0424C39.2529 19.1511 38.9134 19.1375 38.5874 19.0153C38.2614 18.893 38.0305 18.7436 37.8947 18.567C37.5687 18.1732 37.3786 17.4669 37.3378 16.4754Z" fill="black"/>
<path d="M25.3447 19.4771C25.3447 20.2513 24.7607 20.8896 24.0272 20.8896C23.2938 20.8896 22.7097 20.2648 22.7097 19.4771V14.2614C22.7097 13.4872 23.2938 12.8489 24.0272 12.8489C24.7607 12.8489 25.3447 13.4737 25.3447 14.2614V19.4771Z" fill="black"/>
</svg>
